<svg id="Layer_1" data-name="Layer 1" xmlns="http://www.w3.org/2000/svg" viewBox="0 0 60 60"><defs><style>.cls-1{fill:#30475e;}.cls-2{opacity:0.35;}.cls-3{fill:#e8e8e8;}</style></defs><rect class="cls-1" width="60" height="60"/><g class="cls-2"><circle class="cls-3" cx="54.58" cy="54.58" r="0.73"/><circle class="cls-3" cx="44.58" cy="54.58" r="0.73"/><circle class="cls-3" cx="34.58" cy="54.58" r="0.73"/><circle class="cls-3" cx="24.58" cy="54.58" r="0.73"/><circle class="cls-3" cx="14.58" cy="54.58" r="0.73"/><circle class="cls-3" cx="4.58" cy="54.58" r="0.73"/><circle class="cls-3" cx="54.58" cy="44.58" r="0.73"/><circle class="cls-3" cx="44.58" cy="44.58" r="0.73"/><circle class="cls-3" cx="34.58" cy="44.58" r="0.73"/><circle class="cls-3" cx="24.58" cy="44.58" r="0.73"/><circle class="cls-3" cx="14.58" cy="44.58" r="0.73"/><circle class="cls-3" cx="4.58" cy="44.58" r="0.73"/><circle class="cls-3" cx="54.58" cy="34.58" r="0.73"/><circle class="cls-3" cx="44.58" cy="34.58" r="0.73"/><circle class="cls-3" cx="34.58" cy="34.58" r="0.73"/><circle class="cls-3" cx="24.58" cy="34.58" r="0.73"/><circle class="cls-3" cx="14.58" cy="34.58" r="0.73"/><circle class="cls-3" cx="4.58" cy="34.58" r="0.73"/><circle class="cls-3" cx="54.58" cy="24.58" r="0.73"/><circle class="cls-3" cx="44.58" cy="24.58" r="0.73"/><circle class="cls-3" cx="34.58" cy="24.58" r="0.73"/><circle class="cls-3" cx="24.58" cy="24.58" r="0.73"/><circle class="cls-3" cx="14.58" cy="24.58" r="0.73"/><circle class="cls-3" cx="4.58" cy="24.58" r="0.73"/><circle class="cls-3" cx="54.58" cy="14.58" r="0.73"/><circle class="cls-3" cx="44.58" cy="14.58" r="0.73"/><circle class="cls-3" cx="34.58" cy="14.58" r="0.73"/><circle class="cls-3" cx="24.58" cy="14.58" r="0.73"/><circle class="cls-3" cx="14.58" cy="14.58" r="0.73"/><circle class="cls-3" cx="4.58" cy="14.58" r="0.73"/><circle class="cls-3" cx="54.58" cy="4.58" r="0.73"/><circle class="cls-3" cx="44.58" cy="4.58" r="0.73"/><circle class="cls-3" cx="34.58" cy="4.58" r="0.73"/><circle class="cls-3" cx="24.58" cy="4.58" r="0.73"/><circle class="cls-3" cx="14.58" cy="4.58" r="0.73"/><circle class="cls-3" cx="4.58" cy="4.58" r="0.73"/></g></svg>