<svg id="Layer_1" data-name="Layer 1" xmlns="http://www.w3.org/2000/svg" viewBox="0 0 30 30"><defs><style>.cls-1{fill:#e8e8e8;stroke:#e8e8e8;stroke-miterlimit:10;stroke-width:2px;}.cls-2{fill:none;}</style></defs><path class="cls-1" d="M23.17,13.83H19.36a3.18,3.18,0,0,1-3.19-3.19V6.83a1.17,1.17,0,0,0-2.34,0v3.81a3.18,3.18,0,0,1-3.19,3.19H6.83a1.17,1.17,0,1,0,0,2.34h3.81a3.18,3.18,0,0,1,3.19,3.19v3.81a1.17,1.17,0,1,0,2.34,0V19.36a3.18,3.18,0,0,1,3.19-3.19h3.81a1.17,1.17,0,0,0,0-2.34Z"/><rect class="cls-2" width="30" height="30"/></svg>