<svg id="Layer_1" data-name="Layer 1" xmlns="http://www.w3.org/2000/svg" viewBox="0 0 32 32"><defs><style>.cls-1{fill:none;stroke:#e8e8e8;}.cls-1,.cls-2{stroke-miterlimit:10;stroke-width:2px;}.cls-2{fill:#e9e8e8;stroke:#e9e8e8;}</style></defs><rect class="cls-1" x="1" y="1" width="30" height="30" rx="1.38"/><path class="cls-2" d="M23.17,13.83H19.36a3.18,3.18,0,0,1-3.19-3.17V6.83a1.17,1.17,0,0,0-2.34,0h0v3.81a3.18,3.18,0,0,1-3.17,3.19H6.83a1.17,1.17,0,1,0,0,2.34h3.81a3.18,3.18,0,0,1,3.19,3.17v3.83a1.17,1.17,0,1,0,2.34,0h0V19.36a3.18,3.18,0,0,1,3.17-3.19h3.83a1.17,1.17,0,0,0,0-2.34Z" transform="translate(1 1)"/></svg>