<svg id="Layer_1" data-name="Layer 1" xmlns="http://www.w3.org/2000/svg" viewBox="0 0 30 30"><defs><style>.cls-1{fill:#e8e8e8;}</style></defs><path class="cls-1" d="M8.34,11.57H10A1.61,1.61,0,0,0,11.57,10V0H8.34V8.34H0v3.23Z" transform="translate(0)"/><path class="cls-1" d="M11.57,21.66V20A1.61,1.61,0,0,0,10,18.43H0v3.23H8.34V30h3.23Z" transform="translate(0)"/><path class="cls-1" d="M18.43,8.34V10A1.61,1.61,0,0,0,20,11.57H30V8.34H21.66V0H18.43Z" transform="translate(0)"/><path class="cls-1" d="M21.66,18.43H20A1.61,1.61,0,0,0,18.43,20V30h3.23V21.66H30V18.43Z" transform="translate(0)"/></svg>