<svg id="Layer_1" data-name="Layer 1" xmlns="http://www.w3.org/2000/svg" viewBox="0 0 32 32"><defs><style>.cls-1{fill:#e8e8e8;}.cls-2{fill:none;stroke:#e8e8e8;stroke-miterlimit:10;stroke-width:2px;}</style></defs><path class="cls-1" d="M21,14.18a1.05,1.05,0,0,1,0,2L17.33,18.3l-3.46,2L10.2,22.42c-1,.55-1.74.1-1.74-1V8.94c0-1.1.78-1.55,1.74-1l3.67,2.12,3.46,2Z" transform="translate(1 1)"/><path class="cls-2" d="M21,14.18a1.05,1.05,0,0,1,0,2L17.33,18.3l-3.46,2L10.2,22.42c-1,.55-1.74.1-1.74-1V8.94c0-1.1.78-1.55,1.74-1l3.67,2.12,3.46,2Z" transform="translate(1 1)"/><rect class="cls-2" x="1" y="1" width="30" height="30" rx="1.38"/></svg>