<svg id="Layer_1" data-name="Layer 1" xmlns="http://www.w3.org/2000/svg" viewBox="0 0 43.8 43.8"><defs><style>.cls-1{fill:#e8e8e8;}</style></defs><path class="cls-1" d="M48.87,26.51a8.67,8.67,0,0,1-3.07-3.05c-.5-1.22-.25-2.88,0-4.49.26-1.78.54-3.61-.3-4.46S42.81,14,41,14.21c-1.61.24-3.27.49-4.49,0a8.67,8.67,0,0,1-3-3.07c-1.09-1.49-2.22-3-3.49-3s-2.4,1.54-3.49,3a8.67,8.67,0,0,1-3.05,3.07c-1.22.5-2.88.25-4.49,0-1.78-.26-3.61-.54-4.46.3S14,17.19,14.21,19c.24,1.61.49,3.27,0,4.49a8.67,8.67,0,0,1-3.07,3.05c-1.49,1.09-3,2.22-3,3.49s1.54,2.4,3,3.49a8.67,8.67,0,0,1,3.07,3c.5,1.22.25,2.88,0,4.49-.26,1.78-.54,3.61.3,4.46s2.68.56,4.46.3a18.74,18.74,0,0,1,2.72-.28,4.8,4.8,0,0,1,1.77.29,8.67,8.67,0,0,1,3.05,3.07c1.09,1.49,2.22,3,3.49,3s2.4-1.54,3.49-3a8.67,8.67,0,0,1,3-3.07c1.23-.5,2.88-.25,4.49,0,1.78.26,3.61.54,4.46-.3s.56-2.68.3-4.46c-.24-1.61-.49-3.27,0-4.49a8.67,8.67,0,0,1,3.07-3c1.49-1.09,3-2.22,3-3.49S50.36,27.6,48.87,26.51ZM30,37.5A7.5,7.5,0,1,1,37.5,30,7.5,7.5,0,0,1,30,37.5Z" transform="translate(-8.1 -8.1)"/></svg>