<svg id="Layer_1" data-name="Layer 1" xmlns="http://www.w3.org/2000/svg" viewBox="0 0 62 62"><defs><style>.cls-1{fill:none;stroke:#e8e8e8;stroke-miterlimit:10;stroke-width:2px;}</style></defs><rect class="cls-1" x="1" y="1" width="60" height="60" rx="4.02"/><path class="cls-1" d="M26.8,21.2A9.77,9.77,0,0,1,17,31a7.82,7.82,0,0,1-7.81-7.82,6.25,6.25,0,0,1,6.25-6.25,5,5,0,0,1,5,5,4,4,0,0,1-4,4,3.2,3.2,0,0,1-3.2-3.2,2.56,2.56,0,0,1,2.56-2.56" transform="translate(1 1)"/><path class="cls-1" d="M33.2,26.67A9.76,9.76,0,0,1,43,16.9a7.81,7.81,0,0,1,7.81,7.81A6.25,6.25,0,0,1,44.53,31a5,5,0,0,1-5-5,4,4,0,0,1,4-4,3.2,3.2,0,0,1,3.2,3.2,2.57,2.57,0,0,1-2.56,2.57" transform="translate(1 1)"/><path class="cls-1" d="M8.11,39.47c3.12,0,3.12,4,6.25,4s3.13-4,6.25-4,3.13,4,6.26,4,3.12-4,6.25-4,3.12,4,6.25,4,3.13-4,6.26-4,3.13,4,6.26,4" transform="translate(1 1)"/></svg>