<svg id="Layer_1" data-name="Layer 1" xmlns="http://www.w3.org/2000/svg" viewBox="0 0 610.12 48.94"><defs><style>.cls-1{fill:none;}.cls-1,.cls-3{stroke:#f05454;}.cls-1,.cls-2,.cls-3{stroke-miterlimit:10;}.cls-2{fill:#e8e8e8;stroke:#e8e8e8;}.cls-3{fill:#f05454;}</style></defs><path class="cls-1" d="M6.94,20.55H17.11V53.34h18.6v8H6.94Z" transform="translate(-6.44 -12.9)"/><path class="cls-1" d="M67.45,53H51.15l-2.79,8.31H37.94L53.69,20.55H66.33L82.08,61.34H70.24Zm-2.11-6.32-6-17.86H59.2l-6,17.86Z" transform="translate(-6.44 -12.9)"/><path class="cls-1" d="M85.93,20.55h14.63l16,27.4h.07l-.31-27.4h9.54V61.34h-12L95.29,29.72h-.06l.24,31.62H85.93Z" transform="translate(-6.44 -12.9)"/><path class="cls-1" d="M141.35,28.54H129.76v-8h33.29v8H151.52v32.8H141.35Z" transform="translate(-6.44 -12.9)"/><path class="cls-1" d="M167,20.55h28.89v8H177.13v9.18h14.51v6.2H177.13v9.42h19.28v8H167Z" transform="translate(-6.44 -12.9)"/><path class="cls-1" d="M200.63,20.55h19c10.79,0,16.61,4.46,16.61,12.15,0,5.2-2.23,8.49-6.07,9.61v.12c4,.93,5.83,4.15,5.83,8.74V61.34H225.86V51.48c0-3.72-1.36-5.33-5.21-5.33h-9.86V61.34H200.63ZM220.09,40c4.28,0,6.45-1.92,6.45-5.7,0-3.6-2.23-5.77-6.94-5.77h-8.81V40Z" transform="translate(-6.44 -12.9)"/><path class="cls-1" d="M241.55,20.55h14.63l16,27.4h.06l-.31-27.4h9.55V61.34h-12L250.91,29.72h-.06l.24,31.62h-9.54Z" transform="translate(-6.44 -12.9)"/><path class="cls-1" d="M287.05,20.55H304.6c10.41,0,16.68,4.89,16.68,14.75,0,9.05-5.09,14.38-15.75,14.38h-8.31V61.34H287.05ZM305.1,42.86c4.27,0,6.63-2.29,6.63-7.06s-2.61-7.26-7.44-7.26h-7.07V42.86Z" transform="translate(-6.44 -12.9)"/><path class="cls-1" d="M348.31,53H332l-2.79,8.31H318.8l15.74-40.79h12.65l15.75,40.79H351.1Zm-2.11-6.32-6-17.86h-.13l-5.95,17.86Z" transform="translate(-6.44 -12.9)"/><path class="cls-1" d="M366.79,20.55h19c10.79,0,16.61,4.46,16.61,12.15,0,5.2-2.23,8.49-6.07,9.61v.12c4,.93,5.82,4.15,5.82,8.74V61.34H392V51.48c0-3.72-1.37-5.33-5.21-5.33H377V61.34H366.79ZM386.25,40c4.28,0,6.45-1.92,6.45-5.7,0-3.6-2.23-5.77-6.94-5.77H377V40Z" transform="translate(-6.44 -12.9)"/><path class="cls-1" d="M416.63,28.54H405v-8h33.29v8H426.8v32.8H416.63Z" transform="translate(-6.44 -12.9)"/><path class="cls-1" d="M457.18,45.72,441.12,20.55H454.2l8.93,16.11h.19l8.8-16.11h11.35L467.35,45.72V61.34H457.18Z" transform="translate(-6.44 -12.9)"/><path class="cls-1" d="M482.17,52h9.17v9.3h-9.17Z" transform="translate(-6.44 -12.9)"/><path class="cls-1" d="M498,20.55h16.43c13,0,21.07,6.94,21.07,20.33s-7.62,20.46-19.77,20.46H498Zm17.6,32.79c5.65,0,9.8-3.84,9.8-12.46S521,28.54,515,28.54H508.2v24.8Z" transform="translate(-6.44 -12.9)"/><path class="cls-1" d="M540.2,20.55h28.89v8H550.36v9.18h14.51v6.2H550.36v9.42h19.29v8H540.2Z" transform="translate(-6.44 -12.9)"/><path class="cls-1" d="M572.13,20.55h11.59l10.91,31.74h.13l10.66-31.74h10.41L600.27,61.34H587.63Z" transform="translate(-6.44 -12.9)"/><path class="cls-2" d="M6.94,13.4H17.11V46.19h18.6v8H6.94Z" transform="translate(-6.44 -12.9)"/><path class="cls-2" d="M67.45,45.88H51.15l-2.79,8.31H37.94L53.69,13.4H66.33L82.08,54.19H70.24Zm-2.11-6.32-6-17.86H59.2l-6,17.86Z" transform="translate(-6.44 -12.9)"/><path class="cls-2" d="M85.93,13.4h14.63l16,27.4h.07l-.31-27.4h9.54V54.19h-12L95.29,22.57h-.06l.24,31.62H85.93Z" transform="translate(-6.44 -12.9)"/><path class="cls-2" d="M141.35,21.39H129.76v-8h33.29v8H151.52v32.8H141.35Z" transform="translate(-6.44 -12.9)"/><path class="cls-2" d="M167,13.4h28.89v8H177.13v9.18h14.51v6.2H177.13v9.42h19.28v8H167Z" transform="translate(-6.44 -12.9)"/><path class="cls-2" d="M200.63,13.4h19c10.79,0,16.61,4.46,16.61,12.15,0,5.21-2.23,8.49-6.07,9.61v.12c4,.93,5.83,4.15,5.83,8.74V54.19H225.86V44.33c0-3.72-1.36-5.33-5.21-5.33h-9.86V54.19H200.63Zm19.46,19.46c4.28,0,6.45-1.92,6.45-5.7,0-3.6-2.23-5.77-6.94-5.77h-8.81V32.86Z" transform="translate(-6.44 -12.9)"/><path class="cls-2" d="M241.55,13.4h14.63l16,27.4h.06l-.31-27.4h9.55V54.19h-12L250.91,22.57h-.06l.24,31.62h-9.54Z" transform="translate(-6.44 -12.9)"/><path class="cls-2" d="M287.05,13.4H304.6c10.41,0,16.68,4.89,16.68,14.75,0,9.05-5.09,14.38-15.75,14.38h-8.31V54.19H287.05ZM305.1,35.72c4.27,0,6.63-2.3,6.63-7.07s-2.61-7.26-7.44-7.26h-7.07V35.72Z" transform="translate(-6.44 -12.9)"/><path class="cls-2" d="M348.31,45.88H332l-2.79,8.31H318.8L334.54,13.4h12.65l15.75,40.79H351.1Zm-2.11-6.32-6-17.86h-.13l-5.95,17.86Z" transform="translate(-6.44 -12.9)"/><path class="cls-2" d="M366.79,13.4h19c10.79,0,16.61,4.46,16.61,12.15,0,5.21-2.23,8.49-6.07,9.61v.12c4,.93,5.82,4.15,5.82,8.74V54.19H392V44.33c0-3.72-1.37-5.33-5.21-5.33H377V54.19H366.79Zm19.46,19.46c4.28,0,6.45-1.92,6.45-5.7,0-3.6-2.23-5.77-6.94-5.77H377V32.86Z" transform="translate(-6.44 -12.9)"/><path class="cls-2" d="M416.63,21.39H405v-8h33.29v8H426.8v32.8H416.63Z" transform="translate(-6.44 -12.9)"/><path class="cls-2" d="M457.18,38.57,441.12,13.4H454.2l8.93,16.11h.19l8.8-16.11h11.35L467.35,38.57V54.19H457.18Z" transform="translate(-6.44 -12.9)"/><path class="cls-3" d="M482.17,44.89h9.17v9.3h-9.17Z" transform="translate(-6.44 -12.9)"/><path class="cls-3" d="M498,13.4h16.43c13,0,21.07,6.94,21.07,20.33s-7.62,20.46-19.77,20.46H498Zm17.6,32.79c5.65,0,9.8-3.84,9.8-12.46S521,21.39,515,21.39H508.2v24.8Z" transform="translate(-6.44 -12.9)"/><path class="cls-3" d="M540.2,13.4h28.89v8H550.36v9.18h14.51v6.2H550.36v9.42h19.29v8H540.2Z" transform="translate(-6.44 -12.9)"/><path class="cls-3" d="M572.13,13.4h11.59l10.91,31.74h.13L605.42,13.4h10.41L600.27,54.19H587.63Z" transform="translate(-6.44 -12.9)"/></svg>