<svg id="Layer_1" data-name="Layer 1" xmlns="http://www.w3.org/2000/svg" viewBox="0 0 64.33 64.33"><defs><style>.cls-1,.cls-2,.cls-3,.cls-4{fill:none;stroke-miterlimit:10;stroke-width:4px;}.cls-1{stroke:#4a9baf;}.cls-2{stroke:#cc918a;}.cls-3{stroke:#f05555;}.cls-4{stroke:#e8e8e8;}</style></defs><polygon class="cls-1" points="40.09 12.98 24.24 12.98 13.03 24.22 13.03 40.11 24.24 51.34 40.09 51.34 51.3 40.11 51.3 24.22 40.09 12.98"/><circle class="cls-2" cx="32.16" cy="32.16" r="24.55"/><polygon class="cls-3" points="31.9 2.17 10.77 11.14 2.17 32.43 11.14 53.56 32.43 62.16 53.56 53.19 62.16 31.9 53.19 10.77 31.9 2.17"/><path class="cls-4" d="M29,17.56a1.06,1.06,0,0,1,2,0l4.32,7.49,2,3.47L41.65,36c.55,1,.1,1.73-1,1.73H19.35c-1.1,0-1.55-.78-1-1.73l4.33-7.49,2-3.47Z" transform="translate(2.16 2.16)"/></svg>