<svg id="Layer_1" data-name="Layer 1" xmlns="http://www.w3.org/2000/svg" viewBox="0 0 33.3 31.01"><defs><style>.cls-1,.cls-2,.cls-4{fill:none;stroke-miterlimit:10;}.cls-1{stroke:#4a9baf;}.cls-2{stroke:#cc918a;}.cls-3{fill:#f05555;}.cls-4{stroke:#f05555;}</style></defs><path class="cls-1" d="M47.92,29a1.05,1.05,0,0,1,0,2L37.73,36.88l-3.46,2L24.08,44.77c-1,.55-1.74.1-1.74-1V16.23c0-1.1.78-1.55,1.74-1l10.19,5.89,3.46,2Z" transform="translate(-15.84 -14.5)"/><path class="cls-2" d="M44.92,29a1.05,1.05,0,0,1,0,2L34.73,36.88l-3.46,2L21.08,44.77c-1,.55-1.74.1-1.74-1V16.23c0-1.1.78-1.55,1.74-1l10.19,5.89,3.46,2Z" transform="translate(-15.84 -14.5)"/><path class="cls-3" d="M41.92,29a1.05,1.05,0,0,1,0,2L31.73,36.88l-3.46,2L18.08,44.77c-1,.55-1.74.1-1.74-1V16.23c0-1.1.78-1.55,1.74-1l10.19,5.89,3.46,2Z" transform="translate(-15.84 -14.5)"/><path class="cls-4" d="M41.92,29a1.05,1.05,0,0,1,0,2L31.73,36.88l-3.46,2L18.08,44.77c-1,.55-1.74.1-1.74-1V16.23c0-1.1.78-1.55,1.74-1l10.19,5.89,3.46,2Z" transform="translate(-15.84 -14.5)"/></svg>